<svg id="Layer_1" data-name="Layer 1" xmlns="http://www.w3.org/2000/svg" viewBox="0 0 62 62"><defs><style>.cls-1{fill:#fff;}</style></defs><path class="cls-1" d="M58.06,39.74,50,37.26V35.13A10,10,0,0,0,53,28h1a5,5,0,0,0,5-5,5,5,0,0,0-2-4V15a14,14,0,0,0-28,0v4A4.94,4.94,0,0,0,29,27v2a3,3,0,0,0,3,3h1.84A10,10,0,0,0,36,35.13v2.13l-8.06,2.48A7,7,0,0,0,23,46.43v2a11.86,11.86,0,0,0-3-3.12V18.74A12,12,0,0,0,22.24,1.36L21.94,1H16v9H10V1H4.06l-.3.36A12,12,0,0,0,6,18.74V45.26A12,12,0,0,0,3.76,62.64l.3.36H10V54h6v9h5.94l.3-.36a12.4,12.4,0,0,0,.76-1V63H63V46.43A7,7,0,0,0,58.06,39.74Zm-6.52.09-3,6.68-4-2.67,4.71-4.71ZM41.86,50h2.28l1.69,11H40.17Zm2.61-2H41.54l-.85-1.26L43,45.2l2.31,1.54ZM54,26H53V20h1a3,3,0,0,1,0,6ZM31,15a12,12,0,0,1,24,0v3.1a4.71,4.71,0,0,0-1-.1H52a11,11,0,0,1-7.83-3.24L43,13.59l-1.17,1.17A11,11,0,0,1,34,18H32a4.71,4.71,0,0,0-1,.1Zm1,5h1v6H32a3,3,0,0,1,0-6Zm0,10a1,1,0,0,1-1-1V27.9a4.71,4.71,0,0,0,1,.1h1a10.2,10.2,0,0,0,.2,2Zm6.18,2A3,3,0,0,0,41,34h4a3,3,0,0,0,0-6H41a3,3,0,0,0-2.82,2H35.26A8.24,8.24,0,0,1,35,28V20a12.94,12.94,0,0,0,8-3.55A12.94,12.94,0,0,0,51,20v8a8,8,0,0,1-14.92,4ZM40,31a1,1,0,0,1,1-1h4a1,1,0,0,1,0,2H41A1,1,0,0,1,40,31Zm3,7a10,10,0,0,0,5-1.35v.94l-5,5-5-5v-.94A10,10,0,0,0,43,38Zm-6.28,1.13,4.71,4.72-4,2.66-3-6.68ZM21,61H18V54a2,2,0,0,0-2-2H10a2,2,0,0,0-2,2v7H5A10,10,0,0,1,7.55,46.62L8,46.33V17.67l-.45-.29A10,10,0,0,1,5,3H8v7a2,2,0,0,0,2,2h6a2,2,0,0,0,2-2V3h3a10,10,0,0,1-2.54,14.38l-.45.29V46.33l.45.3A10,10,0,0,1,21,61Zm4-14.57a5,5,0,0,1,3.53-4.78l4-1.23,4,9.07L39,47.85,40,49.23,38.14,61H33V49H31V61H25ZM61,61H55V49H53V61H47.86L46.05,49.23,47,47.85l2.46,1.64,4-9.07,4,1.23A5,5,0,0,1,61,46.43Z" transform="translate(-1 -1)"/><circle class="cls-1" cx="37" cy="21" r="1"/><circle class="cls-1" cx="47" cy="21" r="1"/><rect class="cls-1" x="13" y="28" width="2" height="2"/><path class="cls-1" d="M13,18a3,3,0,0,0-3,3v6h2V21a1,1,0,0,1,2,0v6h2V21A3,3,0,0,0,13,18Z" transform="translate(-1 -1)"/><rect class="cls-1" x="9" y="28" width="2" height="2"/><rect class="cls-1" x="9" y="32" width="2" height="2"/><path class="cls-1" d="M14,43a1,1,0,0,1-2,0V37H10v6a3,3,0,0,0,6,0V37H14Z" transform="translate(-1 -1)"/><rect class="cls-1" x="13" y="32" width="2" height="2"/></svg>