<svg id="Layer_1" data-name="Layer 1" xmlns="http://www.w3.org/2000/svg" viewBox="0 0 62.11 62"><defs><style>.cls-1{fill:#fff;}</style></defs><path class="cls-1" d="M58.21,46.69l-.82-.28c4.76-1.44,5.55-5,5.59-5.21l.13-.66-.55-.37A12.45,12.45,0,0,1,57,29.79V22A15,15,0,0,0,35,8.74V4a3,3,0,0,0-3-3H4A3,3,0,0,0,1,4V16a3,3,0,0,0,3,3H14.7L22,23.87V19h5.31A15,15,0,0,0,27,22v7.79a12.45,12.45,0,0,1-5.56,10.38l-.55.37.13.66c0,.18.83,3.77,5.59,5.21l-.82.27A7,7,0,0,0,21,53.32V63H63V53.32A7,7,0,0,0,58.21,46.69Zm2.6-5.31C60.27,42.53,58.5,45,53.15,45L48,43.28V41.21a11,11,0,0,0,4.82-7.29,5,5,0,0,0,2.5-1.21A14.34,14.34,0,0,0,60.81,41.38ZM36.73,45.14,40.61,49A3.93,3.93,0,0,1,38,50a4,4,0,0,1-4-4ZM42.2,27A30.63,30.63,0,0,0,51,23.75V32a9,9,0,0,1-18,0V26a22.08,22.08,0,0,0,8.78-2.18,7.13,7.13,0,0,1-.57,1.54l-1,2ZM42,43a11.07,11.07,0,0,0,4-.76v1.35l-4,4-4-4V42.24A11.07,11.07,0,0,0,42,43Zm-1,8.19a5.45,5.45,0,0,0,1-.73,6,6,0,0,0,1,.73v5.19l-1,.5-1-.5ZM43.39,49l3.88-3.88,2.72.91a4,4,0,0,1-4,4A3.93,3.93,0,0,1,43.39,49ZM53,26.18a3,3,0,0,1,0,5.64ZM20,17v3.13L15.3,17H4a1,1,0,0,1-1-1V4A1,1,0,0,1,4,3H32a1,1,0,0,1,1,1V16a1,1,0,0,1-1,1Zm12,2a3,3,0,0,0,3-3V11.05A13,13,0,0,1,55,22v3a4.84,4.84,0,0,0-2-.93V20.24l-2.14,1.28a28.34,28.34,0,0,1-7.22,3.07A9.47,9.47,0,0,0,44,22V20.23l-1.51.91A20.07,20.07,0,0,1,33,24V22H31v2.1A5,5,0,0,0,29,25V22a13.09,13.09,0,0,1,.35-3ZM29,29a3,3,0,0,1,2-2.82v5.64A3,3,0,0,1,29,29ZM23.19,41.38a14.37,14.37,0,0,0,5.49-8.67,5,5,0,0,0,2.5,1.2A11,11,0,0,0,36,41.21v2.07L30.85,45C25.5,45,23.73,42.53,23.19,41.38ZM61,61H55.4a5.81,5.81,0,0,0-.11-8.12L55,52.59V51H53v2.41l.88.88a3.84,3.84,0,0,1,0,5.42l-.88.88V61H31v-.41l-.88-.88a3.84,3.84,0,0,1,0-5.42l.88-.88V51H29v1.59l-.29.29A5.81,5.81,0,0,0,28.6,61H23V53.32a5,5,0,0,1,3.42-4.74l5.63-1.87A6,6,0,0,0,38,52a6.64,6.64,0,0,0,1-.09v5.71l3,1.5,3-1.5V51.91A6.64,6.64,0,0,0,46,52a6,6,0,0,0,6-5.29l5.62,1.87A5,5,0,0,1,61,53.32Z" transform="translate(-1 -1)"/><circle class="cls-1" cx="36" cy="27" r="1"/><circle class="cls-1" cx="46" cy="27" r="1"/><path class="cls-1" d="M38,34a4,4,0,0,0,8,0H44a2,2,0,0,1-4,0Z" transform="translate(-1 -1)"/><path class="cls-1" d="M8,7A1,1,0,0,1,9,8h2a3,3,0,1,0-3,3,1,1,0,1,1-1,1H5A3,3,0,1,0,8,9,1,1,0,0,1,8,7Z" transform="translate(-1 -1)"/><path class="cls-1" d="M15.5,5A3.5,3.5,0,0,0,12,8.5V15h2V13h3v2h2V8.5A3.5,3.5,0,0,0,15.5,5ZM14,11V8.5a1.5,1.5,0,0,1,3,0V11Z" transform="translate(-1 -1)"/><polygon class="cls-1" points="21 4 19 4 19 14 24 14 24 12 21 12 21 4"/><polygon class="cls-1" points="25 14 30 14 30 12 27 12 27 10 30 10 30 8 27 8 27 6 30 6 30 4 25 4 25 14"/></svg>