<svg id="Layer_1" data-name="Layer 1" xmlns="http://www.w3.org/2000/svg" viewBox="0 0 62 62"><defs><style>.cls-1{fill:#fff;}</style></defs><path class="cls-1" d="M54.41,14a3.49,3.49,0,0,0-4.82,0l-.64.64a1.27,1.27,0,0,1-.88.36h-.14a1.27,1.27,0,0,1-.88-.36L46.36,14a1.27,1.27,0,0,1-.36-.88,1.25,1.25,0,0,1,.46-1l.58-.46a2.56,2.56,0,0,0,.21-3.81L45.41,6a3.49,3.49,0,0,0-4.82,0L39.23,7.36a4.18,4.18,0,0,0-1.23,3A4.13,4.13,0,0,0,38.34,12,18.7,18.7,0,0,0,48,21.74l2,.9a4.12,4.12,0,0,0,1.7.36,4.16,4.16,0,0,0,3-1.23L56,20.42A3.4,3.4,0,0,0,57,18a3.36,3.36,0,0,0-1-2.41Zm.18,5-1.36,1.36a2.21,2.21,0,0,1-2.44.45l-2-.9a16.7,16.7,0,0,1-8.59-8.7,2.23,2.23,0,0,1,.46-2.44L42,7.41a1.42,1.42,0,0,1,2,0l1.83,1.84a.54.54,0,0,1,.17.4.58.58,0,0,1-.21.44l-.58.46A3.23,3.23,0,0,0,45,15.36l.69.69a3.21,3.21,0,0,0,2.29.95h.14a3.21,3.21,0,0,0,2.29-.95l.64-.64a1.46,1.46,0,0,1,2,0L54.59,17a1.42,1.42,0,0,1,0,2Z" transform="translate(-1 -1)"/><path class="cls-1" d="M19.47,51.44l2.36-1.35c.23.1.46.2.69.28L23.24,53h5.52l.72-2.62.69-.29,2.36,1.35,3.91-3.91-1.35-2.36c.1-.23.2-.46.28-.69L38,43.76V38.24l-2.62-.72c-.09-.23-.19-.46-.29-.69l1.35-2.36-3.91-3.91-2.36,1.35-.69-.29L28.76,29H23.24l-.72,2.62-.69.29-2.36-1.35-3.91,3.91,1.35,2.36c-.1.23-.2.46-.28.69L14,38.24v5.52l2.62.72c.09.23.19.46.29.69l-1.35,2.36ZM16,42.24V39.76l2.19-.6.16-.52a8.52,8.52,0,0,1,.58-1.37l.25-.49-1.13-2,1.75-1.74,2,1.12.49-.25a7.65,7.65,0,0,1,1.37-.57l.52-.17.6-2.19h2.48l.6,2.19.52.16a8.52,8.52,0,0,1,1.37.58l.49.25,2-1.13,1.74,1.75-1.13,2,.26.49a7.09,7.09,0,0,1,.57,1.37l.17.52,2.19.6v2.48l-2.19.6-.16.52a8.52,8.52,0,0,1-.58,1.37l-.25.49,1.13,2L32.2,48.94l-2-1.13-.49.26a7.09,7.09,0,0,1-1.37.57l-.52.17L27.24,51H24.76l-.6-2.19-.52-.16a8.52,8.52,0,0,1-1.37-.58l-.49-.25L19.8,49,18.06,47.2l1.12-2-.25-.49a7.82,7.82,0,0,1-.58-1.37l-.16-.52Z" transform="translate(-1 -1)"/><path class="cls-1" d="M26,47a6,6,0,1,0-6-6A6,6,0,0,0,26,47Zm0-10a4,4,0,1,1-4,4A4,4,0,0,1,26,37Z" transform="translate(-1 -1)"/><path class="cls-1" d="M60,1H34a3,3,0,0,0-3,3v8H20a3,3,0,0,0-2.89,2.24A18.86,18.86,0,0,0,7,31v5.08A7,7,0,0,0,1,43v4a7,7,0,0,0,7,7h5V36H9V31a16.9,16.9,0,0,1,8.35-14.62A3,3,0,0,0,20,18H31v6a3,3,0,0,0,3,3h8.51A16.72,16.72,0,0,1,43,31v5H39V54h1.9A5,5,0,0,1,36,58H30.86A4,4,0,0,0,27,55H23a4,4,0,0,0,0,8h4a4,4,0,0,0,3.86-3H36a7,7,0,0,0,6.92-6H44a7,7,0,0,0,7-7V43a7,7,0,0,0-6-6.92V31a19.13,19.13,0,0,0-.42-4H47v5.8L56.29,27H60a3,3,0,0,0,3-3V4A3,3,0,0,0,60,1ZM11,52H9V40H7V51.9A5,5,0,0,1,3,47V43a5,5,0,0,1,5-5h3Zm16,9H23a2,2,0,0,1,0-4h4a2,2,0,0,1,0,4ZM49,43v4a5,5,0,0,1-4,4.9V40H43V52H41V38h3A5,5,0,0,1,49,43ZM25,14v2H23V14Zm-6,1a1,1,0,0,1,1-1h1v2H20A1,1,0,0,1,19,15Zm8,1V14h4v2Zm34,8a1,1,0,0,1-1,1H55.71L49,29.2V25H34a1,1,0,0,1-1-1V4a1,1,0,0,1,1-1H60a1,1,0,0,1,1,1Z" transform="translate(-1 -1)"/></svg>