<svg id="Layer_1" data-name="Layer 1" xmlns="http://www.w3.org/2000/svg" viewBox="0 0 62 62"><defs><style>.cls-1{fill:#fff;}</style></defs><rect class="cls-1" x="4" y="4" width="2" height="2"/><rect class="cls-1" x="8" y="4" width="2" height="2"/><rect class="cls-1" x="12" y="4" width="2" height="2"/><path class="cls-1" d="M63,15H57V1H1V49H9v6H31v8H59V55h4Zm-2,8H11V17H61ZM55,3V9H3V3ZM3,47V11H55v4H9V47Zm36-6H31v8H15V31H39ZM57,61H33V43H57Zm2-8V41H41V29H13V51H31v2H11V25H61V53Z" transform="translate(-1 -1)"/><rect class="cls-1" x="12" y="18" width="2" height="2"/><rect class="cls-1" x="16" y="18" width="2" height="2"/><rect class="cls-1" x="20" y="18" width="2" height="2"/><rect class="cls-1" x="16" y="32" width="20" height="2"/><rect class="cls-1" x="16" y="36" width="20" height="2"/><rect class="cls-1" x="16" y="40" width="12" height="2"/><rect class="cls-1" x="16" y="44" width="12" height="2"/><rect class="cls-1" x="34" y="44" width="20" height="2"/><rect class="cls-1" x="34" y="48" width="20" height="2"/><rect class="cls-1" x="34" y="52" width="20" height="2"/><rect class="cls-1" x="52" y="56" width="2" height="2"/><rect class="cls-1" x="34" y="56" width="16" height="2"/></svg>