<svg id="Layer_1" data-name="Layer 1" xmlns="http://www.w3.org/2000/svg" viewBox="0 0 62.06 62"><defs><style>.cls-1{fill:#fff;}</style></defs><path class="cls-1" d="M21.29,37.38a11.42,11.42,0,0,1-.68-1.61L16,35V29l4.61-.77a11.42,11.42,0,0,1,.68-1.61l-2.73-3.81,4.25-4.24,3.81,2.72a12.14,12.14,0,0,1,1.61-.68L29,16h6l.77,4.61a11,11,0,0,1,1.61.68l3.81-2.73,4.25,4.25-2.73,3.81a11,11,0,0,1,.68,1.61L48,29v6l-4.61.77a11,11,0,0,1-.68,1.61l2.73,3.81-4.25,4.25-3.81-2.73a11,11,0,0,1-1.61.68L35,48H29l-.77-4.61a11.42,11.42,0,0,1-1.61-.68l-3.81,2.73-4.24-4.25Z" transform="translate(-0.97 -1)"/><path class="cls-1" d="M32,41a9,9,0,1,0-9-9A9,9,0,0,0,32,41Zm-1-9a1,1,0,1,1,1,1A1,1,0,0,1,31,32Zm1-7a7,7,0,0,1,1,13.92v-4.1a3,3,0,1,0-2,0v4.1A7,7,0,0,1,32,25Z" transform="translate(-0.97 -1)"/><path class="cls-1" d="M43.61,26.17l-1.79.9a10.35,10.35,0,0,1,.62,1.48l.19.57,4.37.73v4.3l-4.37.73-.19.58a10.74,10.74,0,0,1-.62,1.47l-.27.54,2.58,3.61-3.05,3.05-3.61-2.58-.54.27a10.35,10.35,0,0,1-1.48.62l-.57.19L34.15,47h-4.3l-.73-4.37-.57-.19a10.35,10.35,0,0,1-1.48-.62l-.54-.27-3.61,2.58-3.65-3.64L17.86,41.9l4.84,4.84,4-2.87.62.26L28.15,49h7.7l.81-4.87.62-.26,4,2.87,5.44-5.44-2.87-4c.09-.21.18-.41.26-.62L49,35.85v-7.7l-4.87-.81C44,27,43.8,26.56,43.61,26.17Z" transform="translate(-0.97 -1)"/><path class="cls-1" d="M15,28.15v7.7l4.87.81c.15.39.33.78.52,1.17l1.79-.9a10.35,10.35,0,0,1-.62-1.48l-.19-.57L17,34.15v-4.3l4.37-.73.19-.57a10.35,10.35,0,0,1,.62-1.48l.27-.54-2.58-3.61,3.05-3.05,3.61,2.58.54-.27a10.54,10.54,0,0,1,1.48-.62l.57-.19L29.85,17h4.3l.73,4.37.58.19a11,11,0,0,1,1.47.62l.54.27,3.62-2.58,3.64,3.64,1.41-1.41L41.3,17.26l-4,2.87-.62-.26L35.85,15h-7.7l-.81,4.87-.62.26-4-2.87L17.26,22.7l2.87,4c-.09.21-.18.41-.26.62Z" transform="translate(-0.97 -1)"/><rect class="cls-1" x="30.03" y="18" width="2" height="2"/><rect class="cls-1" x="22.51" y="22.51" width="2" height="2" transform="translate(-10.71 22.51) rotate(-45)"/><rect class="cls-1" x="18.03" y="30" width="2" height="2"/><rect class="cls-1" x="22.51" y="39.48" width="2" height="2" transform="translate(-22.71 27.48) rotate(-45)"/><rect class="cls-1" x="30.03" y="42" width="2" height="2"/><rect class="cls-1" x="39.48" y="39.49" width="2" height="2" transform="translate(-17.74 39.48) rotate(-45)"/><rect class="cls-1" x="42.03" y="30" width="2" height="2"/><rect class="cls-1" x="39.48" y="22.52" width="2" height="2" transform="translate(-5.74 34.51) rotate(-45)"/><path class="cls-1" d="M63,31.76c0-.21-5.48-20.76-31-20.76S1.08,31.55,1,31.76L1,32l.06.24C1.08,32.45,6.51,53,32,53S62.92,32.45,63,32.24L63,32ZM3,32A27.23,27.23,0,0,1,19.69,15a20.92,20.92,0,0,0,.1,34A26.65,26.65,0,0,1,3,32ZM32,13A19,19,0,1,1,13,32,19,19,0,0,1,32,13ZM44.31,49a20.92,20.92,0,0,0-.1-34A26.65,26.65,0,0,1,61,32,27.23,27.23,0,0,1,44.31,49Z" transform="translate(-0.97 -1)"/><path class="cls-1" d="M31,58a1,1,0,0,1-1,1H13.82a3,3,0,1,0,0,2H30a3,3,0,0,0,3-3V55H31ZM11,61a1,1,0,1,1,1-1A1,1,0,0,1,11,61Z" transform="translate(-0.97 -1)"/><path class="cls-1" d="M11,54a3,3,0,0,0,3-3V50H12v1a1,1,0,0,1-1,1H6.82a3,3,0,1,0,0,2ZM4,54a1,1,0,1,1,1-1A1,1,0,0,1,4,54Z" transform="translate(-0.97 -1)"/><path class="cls-1" d="M60,8a3,3,0,0,0-2.82,2H53a3,3,0,0,0-3,3v1h2V13a1,1,0,0,1,1-1h4.18A3,3,0,1,0,60,8Zm0,4a1,1,0,1,1,1-1A1,1,0,0,1,60,12Z" transform="translate(-0.97 -1)"/><path class="cls-1" d="M53,7a3,3,0,1,0-2.82-4H34a3,3,0,0,0-3,3V9h2V6a1,1,0,0,1,1-1H50.18A3,3,0,0,0,53,7Zm0-4a1,1,0,1,1-1,1A1,1,0,0,1,53,3Z" transform="translate(-0.97 -1)"/></svg>