<?xml version="1.0" standalone="no"?>
<!DOCTYPE svg PUBLIC "-//W3C//DTD SVG 20010904//EN"
 "http://www.w3.org/TR/2001/REC-SVG-20010904/DTD/svg10.dtd">
<svg version="1.0" xmlns="http://www.w3.org/2000/svg"
 width="156.000000pt" height="151.000000pt" viewBox="0 0 156.000000 151.000000"
 preserveAspectRatio="xMidYMid meet">
<metadata>
Created by potrace 1.16, written by Peter Selinger 2001-2019
</metadata>
<g transform="translate(0.000000,151.000000) scale(0.100000,-0.100000)"
fill="#000000" stroke="none">
<path d="M630 1472 c-113 -38 -201 -116 -256 -228 -83 -168 -46 -374 92 -504
115 -109 280 -148 432 -101 92 28 177 90 230 171 59 87 75 150 70 269 -3 82
-8 106 -35 164 -42 87 -117 163 -207 207 -64 32 -79 35 -170 37 -77 2 -114 -1
-156 -15z m293 -129 c148 -81 212 -267 143 -418 -35 -77 -108 -147 -184 -175
-75 -29 -185 -24 -252 9 -61 31 -126 95 -158 156 -23 43 -27 62 -27 140 0 79
4 96 28 143 89 169 287 233 450 145z"/>
<path d="M502 579 c-255 -39 -455 -247 -478 -499 l-7 -70 57 0 56 0 0 39 c0
98 64 227 153 307 113 102 198 124 482 124 231 0 294 -8 382 -49 126 -60 242
-207 258 -329 12 -95 10 -92 65 -92 l50 0 0 46 c0 163 -117 355 -271 447 -121
71 -163 79 -439 83 -135 1 -273 -2 -308 -7z"/>
</g>
</svg>
