<svg id="Layer_1" data-name="Layer 1" xmlns="http://www.w3.org/2000/svg" viewBox="0 0 62 62"><defs><style>.cls-1{fill:#fff;}</style></defs><rect class="cls-1" x="24" y="50" width="2" height="2"/><rect class="cls-1" x="24" y="46" width="2" height="2"/><rect class="cls-1" x="24" y="42" width="2" height="2"/><path class="cls-1" d="M26,28H24a2,2,0,0,1-4,0H18a4,4,0,0,0,8,0Z" transform="translate(-1 -1)"/><circle class="cls-1" cx="16" cy="21" r="1"/><circle class="cls-1" cx="26" cy="21" r="1"/><path class="cls-1" d="M52,47H47V46a1,1,0,0,1,1-1h2a3,3,0,0,0,3-3V41H51v1a1,1,0,0,1-1,1H48a3,3,0,0,0-3,3v1H40a5,5,0,0,0-5,5v1.83A5.14,5.14,0,0,0,39.51,59a5,5,0,0,0,5.39-4h2.2A5,5,0,0,0,52,59l.48,0A5.14,5.14,0,0,0,57,53.83V52A5,5,0,0,0,52,47Zm3,6.83A3.13,3.13,0,0,1,52.3,57,3,3,0,0,1,49,54V53H43v1a3,3,0,0,1-3.3,3A3.13,3.13,0,0,1,37,53.83V52a3,3,0,0,1,3-3H52a3,3,0,0,1,3,3Z" transform="translate(-1 -1)"/><rect class="cls-1" x="50" y="50" width="2" height="2"/><rect class="cls-1" x="38" y="50" width="2" height="2"/><path class="cls-1" d="M58,37H50.29L41,31.19V37H34a5,5,0,0,0-3.22,1.21L28,37.28V35.21a11,11,0,0,0,4.82-7.29A5,5,0,0,0,37,23.2,51,51,0,0,0,38,12V10.61L34.73,11.7c-1.91-7.49-6.12-9.52-6.31-9.61l-.86-.4-1,1.88C24.81,2.6,20.57,1,12,1H10.72l.93,3.71-4.81-1,1,7.93L4,10.72V12A20.8,20.8,0,0,0,7,23.37a5,5,0,0,0,4.14,4.54A11,11,0,0,0,16,35.21v2.07L5.79,40.69A7,7,0,0,0,1,47.32V57H29v1a5,5,0,0,0,5,5H58a5,5,0,0,0,5-5V42A5,5,0,0,0,58,37ZM33,25.82V20.18a3,3,0,0,1,0,5.64ZM10.17,14.32l-1-8.07,5.19,1L13.28,3c10,.2,13,2.71,13,2.72l1,.9,1.15-2.18c1.22,1,3.54,3.47,4.65,8.76l.23,1.1L36,13.39c0,2.52-.23,4.58-.41,6.12A5.1,5.1,0,0,0,33,18.1V16H31v2a20,20,0,0,1-9.49-2.84L20,14.23V16a9.47,9.47,0,0,0,.36,2.59,28.19,28.19,0,0,1-7.22-3.07L11,14.23V18.1a5,5,0,0,0-3.27,2.34A20.2,20.2,0,0,1,6,13.29ZM9,23a3,3,0,0,1,2-2.82v5.64A3,3,0,0,1,9,23Zm4,3V17.75A30.63,30.63,0,0,0,21.8,21l2,.4-1-2a7.13,7.13,0,0,1-.57-1.54A22.08,22.08,0,0,0,31,20v6a9,9,0,0,1-18,0Zm9,11a11.07,11.07,0,0,0,4-.76v1.63h0a4.12,4.12,0,0,1-8,0V36.24A11.07,11.07,0,0,0,22,37ZM11,55V47H9v8H3V47.32a5,5,0,0,1,3.42-4.74l10-3.32A6.08,6.08,0,0,0,21,42.92V53h2V42.92a6.08,6.08,0,0,0,4.63-3.66l1.86.62A4.89,4.89,0,0,0,29,42V55Zm50,3a3,3,0,0,1-3,3H34a3,3,0,0,1-3-3V42a3,3,0,0,1,3-3h9V34.81L49.71,39H58a3,3,0,0,1,3,3Z" transform="translate(-1 -1)"/></svg>